<?xml version="1.0" standalone="no"?>
<!DOCTYPE svg PUBLIC "-//W3C//DTD SVG 20010904//EN"
 "http://www.w3.org/TR/2001/REC-SVG-20010904/DTD/svg10.dtd">
<svg version="1.0" xmlns="http://www.w3.org/2000/svg"
 width="2000.000000pt" height="2000.000000pt" viewBox="0 0 2000.000000 2000.000000"
 preserveAspectRatio="xMidYMid meet">
<metadata>
Created by potrace 1.11, written by Peter Selinger 2001-2013
</metadata>
<g transform="translate(0.000000,2000.000000) scale(0.100000,-0.100000)"
fill="#000000" stroke="none">
<path d="M3678 17948 c0 -2 -2 -3642 -3 -8091 l-1 -8087 2035 2 2036 3 0 187
c-1 116 3 184 9 181 5 -4 6 -1 0 8 -13 22 -16 81 -2 73 7 -5 8 -3 2 7 -13 22
-16 81 -2 73 7 -5 8 -3 2 7 -13 22 -16 81 -2 73 7 -5 8 -3 2 7 -13 22 -16 81
-2 73 7 -5 8 -3 2 7 -13 22 -16 81 -2 73 7 -5 8 -3 2 7 -13 22 -16 81 -2 73 7
-5 8 -3 2 7 -13 22 -16 81 -2 73 7 -5 8 -3 2 7 -13 22 -16 81 -2 73 7 -5 8 -3
2 7 -13 22 -16 81 -2 73 7 -5 8 -3 2 7 -13 22 -16 81 -2 73 7 -5 8 -3 2 7 -13
22 -16 81 -2 73 7 -5 8 -3 2 7 -13 22 -16 81 -2 73 7 -5 8 -3 2 7 -13 22 -16
81 -2 73 7 -5 8 -3 2 7 -13 22 -16 81 -2 73 7 -5 8 -3 2 7 -13 22 -16 81 -2
73 7 -5 8 -3 2 7 -13 22 -16 81 -2 73 7 -5 8 -3 2 7 -13 22 -16 81 -2 73 7 -5
8 -3 2 7 -13 22 -16 81 -2 73 7 -5 8 -3 2 7 -13 22 -16 81 -2 73 7 -5 8 -3 2
7 -13 22 -16 81 -2 73 7 -5 8 -3 2 7 -13 22 -16 81 -2 73 7 -5 8 -3 2 7 -13
22 -16 81 -2 73 7 -5 8 -3 2 7 -13 22 -16 81 -2 73 7 -5 8 -3 2 7 -13 22 -16
81 -2 73 7 -5 8 -3 2 7 -13 22 -16 81 -2 73 7 -5 8 -3 2 7 -13 22 -16 81 -2
73 7 -5 8 -3 2 7 -13 22 -16 81 -2 73 7 -5 8 -3 2 7 -5 8 -9 21 -9 29 0 13
-91 15 -757 15 -416 1 -760 4 -763 7 -11 11 -13 43 -3 62 7 13 7 16 -2 11 -14
-9 -10 26 5 37 6 5 5 11 -4 17 -12 8 -12 12 -2 24 9 12 9 16 -1 19 -11 4 -11
8 0 20 10 13 10 17 0 20 -10 4 -10 8 1 21 7 10 9 17 4 17 -12 0 -10 81 2 100
5 8 4 11 -3 6 -7 -4 -10 1 -9 14 1 11 5 20 10 20 4 0 5 5 1 11 -11 18 -11 82
-1 103 6 12 6 16 -1 12 -6 -4 -10 2 -9 14 1 11 5 20 9 20 5 0 4 9 -2 19 -7 14
-7 22 1 27 8 4 7 9 -2 14 -10 7 -10 12 0 23 9 12 9 16 -1 19 -11 4 -11 8 0 20
10 13 10 17 0 20 -10 4 -10 8 1 21 9 11 10 17 2 17 -12 0 -9 40 5 61 4 7 3 9
-4 5 -7 -4 -10 1 -9 14 1 11 5 20 9 20 5 0 4 8 -1 18 -5 9 -10 19 -12 22 -1 3
3 16 10 29 7 13 8 21 3 17 -6 -4 -10 2 -9 14 1 11 5 20 9 20 5 0 3 10 -3 23
-7 12 -12 22 -12 22 0 0 5 11 12 24 9 16 10 21 1 16 -14 -9 -10 26 5 37 6 5 5
11 -4 17 -12 8 -12 12 -2 24 9 12 9 16 -1 19 -11 4 -11 8 0 20 10 13 10 17 0
20 -10 4 -10 8 1 21 7 10 9 17 4 17 -12 0 -10 81 2 100 5 8 4 11 -3 6 -7 -4
-10 1 -9 14 1 11 5 20 10 20 4 0 5 5 1 11 -11 18 -11 82 -1 103 6 12 6 16 -1
12 -6 -4 -10 2 -9 14 1 11 5 20 10 20 4 0 5 5 1 11 -11 18 -11 82 -1 103 6 12
6 16 -1 12 -6 -4 -10 2 -9 14 1 11 5 20 10 20 4 0 5 5 1 11 -11 18 -11 82 -1
103 6 12 6 16 -1 12 -6 -4 -10 2 -9 14 1 11 5 20 9 20 5 0 4 9 -2 19 -7 14 -7
22 1 27 8 4 7 9 -2 14 -10 7 -10 12 0 23 9 12 9 16 -1 19 -11 4 -11 8 0 20 10
13 10 17 0 20 -10 4 -10 8 1 21 9 11 10 17 2 17 -12 0 -9 40 5 61 4 7 3 9 -4
5 -7 -4 -10 1 -9 14 1 11 5 20 9 20 5 0 4 8 -1 18 -5 9 -10 19 -12 22 -1 3 3
16 10 29 7 13 8 21 3 17 -6 -4 -10 2 -9 14 1 11 5 20 9 20 5 0 4 8 -1 17 -5
10 -10 20 -12 23 -1 3 3 16 10 29 9 16 10 21 1 16 -14 -9 -10 26 5 38 6 4 5
10 -4 16 -12 8 -12 12 -2 24 9 12 9 16 -1 19 -11 4 -11 8 0 20 10 13 10 17 0
20 -10 4 -10 8 1 21 7 10 9 17 4 17 -12 0 -10 81 2 100 5 8 4 11 -3 6 -7 -4
-10 1 -9 14 1 11 5 20 10 20 4 0 5 5 1 11 -11 18 -11 82 -1 103 6 12 6 16 -1
12 -6 -4 -10 2 -9 14 1 11 5 20 10 20 4 0 5 5 1 11 -11 18 -11 82 -1 103 6 12
6 16 -1 12 -6 -4 -10 2 -9 14 1 11 5 20 10 20 4 0 5 5 1 11 -11 18 -11 82 -1
103 6 12 6 16 -1 12 -6 -4 -10 2 -9 14 1 11 5 20 9 20 5 0 4 9 -2 19 -7 14 -7
22 1 27 8 4 7 9 -2 14 -10 7 -10 12 0 23 9 12 9 16 -1 19 -11 4 -11 8 0 20 10
13 10 17 0 20 -10 4 -10 8 1 21 9 11 10 17 2 17 -12 0 -9 40 5 61 4 7 3 9 -4
5 -7 -4 -10 1 -9 14 1 11 5 20 9 20 5 0 4 8 -1 18 -12 22 -11 32 1 56 7 13 7
16 0 12 -6 -4 -10 2 -9 14 1 11 5 20 9 20 5 0 4 8 -1 18 -5 9 -10 19 -12 22
-1 3 3 16 10 29 9 16 10 21 1 16 -14 -9 -10 26 5 38 6 4 5 10 -4 16 -12 8 -12
12 -2 24 9 12 9 16 -1 19 -11 4 -11 8 0 20 10 13 10 17 0 20 -10 4 -10 8 1 21
7 10 9 17 4 17 -12 0 -10 81 2 100 5 8 4 11 -3 6 -7 -4 -10 1 -9 14 1 11 5 20
10 20 4 0 5 5 1 11 -11 18 -11 82 -1 103 6 12 6 16 -1 12 -6 -4 -10 2 -9 14 1
11 5 20 10 20 4 0 5 5 1 11 -11 18 -11 82 -1 103 6 12 6 16 -1 12 -6 -4 -10 2
-9 14 1 11 5 20 10 20 4 0 5 5 1 11 -11 18 -11 82 -1 103 6 12 6 16 -1 12 -6
-4 -10 2 -9 14 1 11 5 20 9 20 5 0 4 9 -2 19 -7 14 -7 22 1 27 8 4 7 9 -2 14
-10 7 -10 12 0 23 9 12 9 16 -1 19 -11 4 -11 8 0 20 10 13 10 17 0 20 -10 4
-10 8 1 21 9 11 10 17 2 17 -12 0 -9 40 5 61 4 7 3 9 -4 5 -7 -4 -10 1 -9 14
1 11 5 20 9 20 5 0 3 10 -3 23 -7 12 -12 22 -12 22 0 0 5 11 12 24 7 13 8 21
3 17 -6 -4 -10 2 -9 14 1 11 5 20 9 20 5 0 4 8 -1 18 -5 9 -10 19 -12 22 -1 3
3 16 10 29 9 16 10 21 1 16 -14 -9 -10 26 5 38 6 4 5 10 -4 16 -12 8 -12 12
-2 24 9 12 9 16 -1 19 -11 4 -11 8 0 20 10 13 10 17 0 20 -10 4 -10 8 1 21 7
10 9 17 4 17 -12 0 -10 81 2 100 5 8 4 11 -3 6 -7 -4 -10 1 -9 14 1 11 5 20
10 20 4 0 5 5 1 11 -11 18 -11 82 -1 103 6 12 6 16 -1 12 -6 -4 -10 2 -9 14 1
11 5 20 9 20 5 0 3 10 -3 23 -7 12 -11 24 -10 27 2 3 7 13 13 24 7 13 7 16 0
12 -6 -4 -10 2 -9 14 1 11 5 20 9 20 5 0 4 8 -1 18 -5 9 -10 19 -12 22 -1 3 3
16 10 29 7 13 8 21 3 17 -6 -4 -10 2 -9 14 1 11 5 20 9 20 5 0 3 10 -3 23 -7
12 -12 22 -12 22 0 0 5 11 12 24 9 16 10 21 1 16 -14 -9 -10 27 5 37 6 5 5 8
-3 8 -10 0 -10 5 -1 21 7 13 7 19 1 15 -6 -4 -10 2 -9 14 1 11 5 20 9 20 5 0
4 8 -1 18 -5 9 -10 19 -12 22 -1 3 3 16 10 29 7 13 8 21 3 17 -6 -4 -10 2 -9
14 1 11 5 20 9 20 5 0 3 10 -3 23 -7 12 -11 24 -10 27 2 3 7 13 13 24 7 13 7
16 -2 11 -14 -9 -10 27 5 37 6 5 5 8 -3 8 -10 0 -10 5 -1 21 7 13 7 19 1 15
-6 -4 -10 2 -9 14 1 11 5 20 9 20 5 0 4 8 -1 18 -5 9 -10 19 -12 22 -1 3 3 16
10 29 7 13 8 21 3 17 -6 -4 -10 2 -9 14 1 11 5 20 9 20 5 0 3 10 -3 23 -7 12
-12 22 -12 22 0 0 5 11 12 24 9 16 10 21 1 16 -14 -9 -10 27 5 37 6 5 5 8 -3
8 -10 0 -10 5 -1 21 7 13 7 19 1 15 -6 -4 -10 2 -9 14 1 11 5 20 9 20 5 0 4 8
-1 18 -12 22 -11 32 1 56 7 13 7 16 0 12 -6 -4 -10 2 -9 14 1 11 5 20 9 20 5
0 4 8 -1 18 -5 9 -10 19 -12 22 -1 3 3 16 10 29 9 16 10 21 1 16 -14 -9 -10
26 5 38 6 4 5 10 -4 16 -12 8 -12 12 -2 24 9 12 9 16 -1 19 -11 4 -11 8 0 20
10 13 10 17 0 20 -10 4 -10 8 1 21 9 11 10 17 2 17 -12 0 -9 40 5 61 4 7 3 9
-4 5 -7 -4 -10 1 -9 14 1 11 5 20 9 20 5 0 3 10 -3 23 -7 12 -12 22 -12 22 0
0 5 11 12 24 7 13 8 21 3 17 -6 -4 -10 2 -9 14 1 11 5 20 9 20 5 0 4 8 -1 18
-5 9 -10 19 -12 22 -1 3 3 16 10 29 9 16 10 21 1 16 -14 -9 -10 26 5 38 6 4 5
10 -4 16 -12 8 -12 12 -2 24 9 12 9 16 -1 19 -11 4 -11 8 0 20 10 13 10 17 0
20 -10 4 -10 8 1 21 7 10 9 17 4 17 -12 0 -10 81 2 100 5 8 4 11 -3 6 -7 -4
-10 1 -9 14 1 11 5 20 10 20 4 0 5 5 1 11 -11 18 -11 82 -1 103 6 12 6 16 -1
12 -6 -4 -10 2 -9 14 1 11 5 20 9 20 5 0 4 9 -2 19 -7 14 -7 22 1 27 8 4 7 9
-2 14 -10 7 -10 12 0 23 9 12 9 16 -1 19 -11 4 -11 8 0 20 10 13 10 17 0 20
-10 4 -10 8 1 21 9 11 10 17 2 17 -12 0 -9 40 5 61 4 7 3 9 -4 5 -7 -4 -10 1
-9 14 1 11 5 20 9 20 5 0 3 10 -3 23 -7 12 -12 22 -12 22 0 0 5 11 12 24 7 13
8 21 3 17 -6 -4 -10 2 -9 14 1 11 5 20 9 20 5 0 4 8 -1 18 -5 9 -10 19 -12 22
-1 3 3 16 10 29 9 16 10 21 1 16 -14 -9 -10 26 5 38 6 4 5 10 -4 16 -12 8 -12
12 -2 24 9 12 9 16 -1 19 -11 4 -11 8 0 20 10 13 10 17 0 20 -10 4 -10 8 1 21
7 10 9 17 4 17 -12 0 -10 81 2 100 5 8 4 11 -3 6 -7 -4 -10 1 -9 14 1 11 5 20
10 20 4 0 5 5 1 11 -11 18 -11 82 -1 103 6 12 6 16 -1 12 -6 -4 -10 2 -9 14 1
11 5 20 9 20 5 0 4 9 -2 19 -7 14 -7 22 1 27 8 4 7 9 -2 14 -10 7 -10 12 0 23
9 12 9 16 -1 19 -11 4 -11 8 0 20 10 13 10 17 0 20 -10 4 -10 8 1 21 9 11 10
17 2 17 -12 0 -9 40 5 61 4 7 3 9 -4 5 -7 -4 -10 1 -9 14 1 11 5 20 9 20 5 0
4 8 -1 18 -12 22 -11 32 1 56 7 13 7 16 0 12 -6 -4 -10 2 -9 14 1 11 5 20 9
20 5 0 4 8 -1 18 -5 9 -10 19 -12 22 -1 3 3 16 10 29 9 16 10 21 1 16 -14 -9
-10 26 5 38 6 4 5 10 -4 16 -12 8 -12 12 -2 24 9 12 9 16 -1 19 -11 4 -11 8 0
20 10 13 10 17 0 20 -10 4 -10 8 1 21 9 11 10 17 2 17 -12 0 -9 40 5 61 4 7 3
9 -4 5 -7 -4 -10 1 -9 14 1 11 5 20 9 20 5 0 3 10 -3 23 -7 12 -12 22 -12 22
0 0 5 11 12 24 7 13 8 21 3 17 -6 -4 -10 2 -9 14 1 11 5 20 9 20 5 0 4 8 -1
18 -12 22 -11 32 1 56 7 13 7 16 -2 11 -14 -9 -10 27 5 37 6 5 5 8 -3 8 -10 0
-10 5 -1 21 7 13 7 19 1 15 -6 -4 -10 2 -9 14 1 11 5 20 9 20 5 0 3 10 -3 23
-7 12 -11 24 -10 27 2 3 7 13 13 24 7 13 7 16 0 12 -6 -4 -10 2 -9 14 1 11 5
20 9 20 5 0 4 8 -1 18 -5 9 -10 19 -12 22 -1 3 3 16 10 29 9 16 10 21 1 16
-14 -9 -10 27 5 37 6 5 5 8 -3 8 -10 0 -10 5 -1 21 7 13 7 19 1 15 -6 -4 -10
2 -9 14 1 11 5 20 9 20 5 0 4 8 -1 18 -5 9 -10 19 -12 22 -1 3 3 16 10 29 7
13 8 21 3 17 -6 -4 -10 2 -9 14 1 11 5 20 9 20 5 0 4 8 -1 18 -5 9 -10 19 -12
22 -1 3 3 16 10 29 9 16 10 21 1 16 -14 -9 -10 27 5 37 6 5 5 8 -3 8 -10 0
-10 5 -1 21 7 13 7 19 1 15 -6 -4 -10 2 -9 14 1 11 5 20 9 20 5 0 3 10 -3 23
-7 12 -12 22 -12 22 0 0 5 11 12 24 7 13 8 21 3 17 -6 -4 -10 2 -9 14 1 11 5
20 9 20 5 0 4 8 -1 18 -12 22 -11 32 1 56 7 13 7 16 -2 11 -14 -9 -10 27 5 37
6 5 5 8 -3 8 -10 0 -10 5 -1 21 7 13 7 19 1 15 -6 -4 -10 2 -9 14 1 11 5 20 9
20 5 0 4 8 -1 18 -5 9 -10 19 -12 22 -1 3 3 16 10 29 7 13 8 21 3 17 -6 -4
-10 2 -9 14 1 11 5 20 9 20 5 0 4 8 -1 18 -12 22 -11 32 1 56 7 13 7 16 -2 11
-14 -9 -10 27 5 37 6 5 5 8 -3 8 -10 0 -10 5 -1 21 7 13 7 19 1 15 -6 -4 -10
2 -9 14 1 11 5 20 9 20 5 0 3 10 -3 23 -7 12 -11 24 -10 27 2 3 7 12 12 21 5
10 4 20 -3 27 -5 5 -8 15 -4 20 7 12 56 22 56 12 0 -9 72 -6 87 3 7 4 14 4 16
0 6 -9 269 -9 284 0 5 3 15 2 22 -3 8 -4 27 -4 42 0 16 5 29 5 29 1 0 -9 71
-8 87 2 6 4 13 4 17 0 8 -9 207 -10 212 -1 3 4 15 4 27 0 28 -10 128 -9 144 1
6 4 14 4 17 -1 6 -10 57 -9 74 2 7 4 12 3 12 -1 0 -10 41 -10 57 0 7 4 14 4
17 -1 6 -10 57 -9 74 2 7 4 12 3 12 -2 0 -10 36 -9 46 0 3 4 16 3 28 -1 24 -8
89 -7 104 3 6 3 13 2 17 -3 3 -7 15 -7 29 -1 13 5 27 6 32 2 4 -4 3 0 -2 8 -5
9 -9 553 -9 1275 l0 1260 -2033 3 c-1117 1 -2033 1 -2034 0z"/>
<path d="M12257 17943 c-2 -5 -3 -351 -3 -770 1 -459 -2 -759 -8 -756 -5 4 -6
0 0 -8 13 -22 16 -81 2 -73 -7 5 -8 3 -2 -7 12 -20 13 -399 1 -392 -6 4 -7 1
-1 -8 13 -21 16 -81 3 -73 -8 4 -8 1 -2 -12 5 -11 9 -121 9 -246 -1 -126 1
-229 4 -229 3 -1 347 -2 764 -3 708 -2 759 -3 762 -19 1 -9 -2 -17 -7 -17 -6
0 -6 -7 0 -17 12 -23 11 -33 -1 -57 -7 -13 -7 -16 2 -11 14 9 10 -27 -5 -37
-6 -5 -5 -8 4 -8 11 0 11 -3 1 -15 -8 -9 -8 -15 -2 -15 6 0 10 -9 9 -20 -1
-11 -5 -20 -9 -20 -5 0 -3 -10 3 -22 7 -13 12 -23 12 -23 0 0 -5 -11 -12 -24
-7 -13 -8 -21 -3 -17 6 4 10 -2 9 -14 -1 -11 -5 -20 -9 -20 -5 0 -4 -8 1 -17
12 -23 11 -33 -1 -57 -7 -13 -7 -16 2 -11 14 9 10 -27 -5 -37 -6 -5 -5 -8 3
-8 10 0 10 -5 1 -21 -7 -13 -7 -19 -1 -15 6 4 10 -2 9 -14 -1 -11 -5 -20 -9
-20 -5 0 -3 -10 3 -22 7 -13 11 -25 10 -28 -2 -3 -7 -13 -13 -24 -7 -13 -7
-16 0 -12 6 4 10 -2 9 -14 -1 -11 -5 -20 -9 -20 -5 0 -4 -8 1 -17 5 -10 10
-20 12 -23 1 -3 -3 -16 -10 -29 -9 -16 -10 -21 -1 -16 14 9 10 -27 -5 -37 -6
-5 -5 -8 4 -8 11 0 11 -3 1 -15 -8 -9 -8 -15 -2 -15 6 0 10 -9 9 -20 -1 -11
-5 -20 -9 -20 -5 0 -3 -10 3 -22 7 -13 11 -25 10 -28 -2 -3 -7 -13 -13 -24 -7
-13 -7 -16 0 -12 6 4 10 -2 9 -14 -1 -11 -5 -20 -9 -20 -5 0 -3 -10 3 -22 7
-13 12 -23 12 -23 0 0 -5 -11 -12 -24 -9 -16 -10 -21 -1 -16 14 9 10 -27 -5
-37 -6 -5 -5 -8 3 -8 10 0 10 -5 1 -21 -7 -13 -7 -19 -1 -15 6 4 10 -2 9 -14
-1 -11 -5 -20 -9 -20 -5 0 -3 -10 3 -22 7 -13 11 -25 10 -28 -2 -3 -7 -13 -13
-24 -7 -13 -7 -16 0 -12 6 4 10 -2 9 -14 -1 -11 -5 -20 -9 -20 -5 0 -3 -10 3
-22 7 -13 11 -25 10 -28 -2 -3 -7 -13 -13 -24 -7 -13 -7 -16 2 -11 14 9 10
-27 -5 -37 -6 -5 -5 -8 4 -8 11 0 11 -3 1 -15 -8 -9 -8 -15 -2 -15 6 0 10 -9
9 -20 -1 -11 -5 -20 -9 -20 -5 0 -4 -8 1 -17 12 -23 11 -33 -1 -57 -7 -13 -7
-16 0 -12 6 4 10 -2 9 -14 -1 -11 -5 -20 -9 -20 -5 0 -3 -10 3 -22 7 -13 12
-23 12 -23 0 0 -5 -11 -12 -24 -7 -13 -8 -21 -3 -17 6 4 10 -2 9 -14 -1 -11
-5 -20 -9 -20 -5 0 -4 -8 1 -17 12 -23 11 -33 -1 -57 -7 -13 -7 -16 0 -12 6 4
10 -2 9 -14 -1 -11 -5 -20 -9 -20 -5 0 -3 -10 3 -22 7 -13 12 -23 12 -23 0 0
-5 -11 -12 -24 -7 -13 -8 -21 -3 -17 6 4 10 -2 9 -14 -1 -11 -5 -20 -9 -20 -5
0 -3 -10 3 -22 7 -13 11 -25 10 -28 -2 -3 -7 -13 -13 -24 -7 -13 -7 -16 0 -12
6 4 10 -2 9 -14 -1 -11 -5 -20 -9 -20 -5 0 -3 -10 3 -22 7 -13 11 -25 10 -28
-2 -3 -7 -13 -13 -24 -7 -13 -7 -16 0 -12 6 4 10 -2 9 -14 -1 -11 -5 -20 -9
-20 -5 0 -3 -10 3 -22 7 -13 11 -25 10 -28 -2 -3 -7 -13 -13 -24 -7 -13 -7
-16 0 -12 6 4 10 -2 9 -14 -1 -11 -5 -20 -9 -20 -5 0 -4 -9 2 -19 7 -14 7 -22
-1 -27 -8 -4 -7 -9 2 -14 10 -7 10 -12 0 -23 -9 -12 -9 -16 1 -19 11 -4 11 -8
0 -20 -10 -13 -10 -17 0 -20 11 -4 11 -8 0 -20 -10 -13 -10 -17 0 -20 11 -4
11 -8 0 -20 -10 -13 -10 -17 0 -20 11 -4 11 -8 0 -20 -10 -13 -10 -17 0 -20
11 -4 11 -8 0 -20 -10 -13 -10 -17 0 -20 10 -4 10 -8 -1 -21 -7 -10 -9 -17 -4
-17 12 0 10 -81 -2 -100 -5 -8 -4 -11 3 -6 7 4 10 -1 9 -14 -1 -11 -5 -20 -9
-20 -5 0 -3 -10 3 -22 7 -13 11 -25 10 -28 -2 -3 -7 -13 -13 -24 -7 -13 -7
-16 0 -12 6 4 10 -2 9 -14 -1 -11 -5 -20 -9 -20 -5 0 -4 -8 1 -17 12 -23 11
-33 -1 -57 -7 -13 -7 -16 0 -12 6 4 10 -2 9 -14 -1 -11 -5 -20 -9 -20 -5 0 -3
-10 3 -22 7 -13 11 -25 10 -28 -2 -3 -7 -13 -13 -24 -7 -13 -7 -16 0 -12 6 4
10 -2 9 -14 -1 -11 -5 -20 -9 -20 -5 0 -3 -10 3 -22 7 -13 11 -25 10 -28 -2
-3 -7 -13 -13 -24 -7 -13 -7 -16 0 -12 6 4 10 -2 9 -14 -1 -11 -5 -20 -9 -20
-5 0 -4 -9 2 -19 7 -14 7 -22 -1 -27 -8 -4 -7 -9 2 -14 10 -7 10 -12 0 -23 -9
-12 -9 -16 1 -19 11 -4 11 -8 0 -20 -10 -13 -10 -17 0 -20 11 -4 11 -8 0 -20
-10 -13 -10 -17 0 -20 11 -4 11 -8 0 -20 -10 -13 -10 -17 0 -20 11 -4 11 -8 0
-20 -10 -13 -10 -17 0 -20 11 -4 11 -8 0 -20 -10 -13 -10 -17 0 -20 10 -4 10
-8 -1 -21 -7 -10 -9 -17 -4 -17 12 0 10 -81 -2 -100 -5 -8 -4 -11 3 -6 7 4 10
-1 9 -14 -1 -11 -5 -20 -9 -20 -5 0 -4 -8 1 -17 12 -23 11 -33 -1 -57 -7 -13
-7 -16 0 -12 6 4 10 -2 9 -14 -1 -11 -5 -20 -9 -20 -5 0 -4 -8 1 -17 12 -23
11 -33 -1 -57 -7 -13 -7 -16 0 -12 6 4 10 -2 9 -14 -1 -11 -5 -20 -9 -20 -5 0
-3 -10 3 -22 7 -13 11 -25 10 -28 -2 -3 -7 -13 -13 -24 -7 -13 -7 -16 0 -12 6
4 10 -2 9 -14 -1 -11 -5 -20 -9 -20 -5 0 -3 -10 3 -22 7 -13 11 -25 10 -28 -2
-3 -7 -13 -13 -24 -7 -13 -7 -16 0 -12 6 4 10 -2 9 -14 -1 -11 -5 -20 -9 -20
-5 0 -3 -10 3 -22 7 -13 12 -23 12 -23 0 0 -5 -11 -12 -24 -7 -13 -8 -21 -3
-17 6 4 10 -2 9 -14 -1 -11 -5 -20 -9 -20 -5 0 -4 -8 1 -17 12 -23 11 -33 -1
-57 -7 -13 -7 -16 0 -12 6 4 10 -2 9 -14 -1 -11 -5 -20 -9 -20 -5 0 -3 -10 3
-22 7 -13 12 -23 12 -23 0 0 -5 -11 -12 -24 -9 -16 -10 -21 -1 -16 14 9 10
-27 -5 -37 -6 -5 -5 -8 4 -8 11 0 11 -3 1 -15 -8 -9 -8 -15 -2 -15 6 0 10 -9
9 -20 -1 -11 -5 -20 -9 -20 -5 0 -3 -10 3 -22 7 -13 11 -25 10 -28 -2 -3 -7
-13 -13 -24 -7 -13 -7 -16 0 -12 6 4 10 -2 9 -14 -1 -11 -5 -20 -9 -20 -5 0
-3 -10 3 -22 7 -13 11 -25 10 -28 -2 -3 -7 -13 -13 -24 -7 -13 -7 -16 2 -11
14 9 10 -27 -5 -37 -6 -5 -5 -8 3 -8 10 0 10 -5 1 -21 -7 -13 -7 -19 -1 -15 6
4 10 -2 9 -14 -1 -11 -5 -20 -9 -20 -5 0 -4 -8 1 -17 5 -10 10 -20 12 -23 1
-3 -3 -16 -10 -29 -7 -13 -8 -21 -3 -17 6 4 10 -2 9 -14 -1 -11 -5 -20 -9 -20
-5 0 -4 -8 1 -17 12 -23 11 -33 -1 -57 -7 -13 -7 -16 2 -11 14 9 10 -27 -5
-37 -6 -5 -5 -8 4 -8 11 0 11 -3 1 -15 -8 -9 -8 -15 -2 -15 6 0 10 -9 9 -20
-1 -11 -5 -20 -9 -20 -5 0 -4 -8 1 -17 12 -23 11 -33 -1 -57 -7 -13 -7 -16 0
-12 6 4 10 -2 9 -14 -1 -11 -5 -20 -9 -20 -5 0 -3 -10 3 -22 7 -13 12 -23 12
-23 0 0 -5 -11 -12 -24 -7 -13 -8 -21 -3 -17 6 4 10 -2 9 -14 -1 -11 -5 -20
-9 -20 -5 0 -3 -10 3 -22 7 -13 11 -25 10 -28 -2 -3 -7 -13 -13 -24 -7 -13 -7
-16 0 -12 6 4 10 -2 9 -14 -1 -11 -5 -20 -9 -20 -5 0 -3 -10 3 -22 7 -13 11
-25 10 -28 -2 -3 -7 -13 -13 -24 -7 -13 -7 -16 0 -12 6 4 10 -2 9 -14 -1 -11
-5 -20 -9 -20 -5 0 -3 -10 3 -22 7 -13 11 -25 10 -28 -2 -3 -7 -13 -13 -24 -7
-13 -7 -16 0 -12 6 4 10 -2 9 -14 -1 -11 -5 -20 -9 -20 -5 0 -4 -8 1 -17 12
-23 11 -33 -1 -57 -7 -13 -7 -16 0 -12 6 4 10 -2 9 -14 -1 -11 -5 -20 -9 -20
-5 0 -3 -10 3 -22 7 -13 11 -25 10 -28 -2 -3 -7 -13 -13 -24 -7 -13 -7 -16 0
-12 6 4 10 -2 9 -14 -1 -11 -5 -20 -9 -20 -5 0 -4 -9 2 -19 7 -14 7 -22 -1
-27 -8 -4 -7 -9 2 -14 10 -7 10 -12 0 -23 -9 -12 -9 -16 1 -19 11 -4 11 -8 0
-20 -10 -13 -10 -17 0 -20 11 -4 11 -8 0 -20 -10 -13 -10 -17 0 -20 11 -4 11
-8 0 -20 -10 -13 -10 -17 0 -20 11 -4 11 -8 0 -20 -10 -13 -10 -17 0 -20 11
-4 11 -8 0 -20 -10 -13 -10 -17 0 -20 10 -4 10 -8 -1 -21 -7 -10 -9 -17 -4
-17 12 0 10 -81 -2 -100 -5 -8 -4 -11 3 -6 7 4 10 -1 9 -14 -1 -11 -5 -20 -9
-20 -5 0 -4 -8 1 -18 12 -22 11 -32 -1 -56 -7 -13 -7 -16 0 -12 6 4 10 -2 9
-14 -1 -11 -5 -20 -9 -20 -5 0 -3 -10 3 -22 7 -13 11 -25 10 -28 -2 -3 -7 -13
-13 -24 -7 -13 -7 -16 0 -12 6 4 10 -2 9 -14 -1 -11 -5 -20 -9 -20 -5 0 -3
-10 3 -22 7 -13 11 -25 10 -28 -2 -3 -7 -13 -13 -24 -7 -13 -7 -16 0 -12 6 4
10 -2 9 -14 -1 -11 -5 -20 -9 -20 -5 0 -3 -10 3 -22 7 -13 11 -25 10 -28 -2
-3 -7 -13 -13 -24 -7 -13 -7 -16 0 -12 6 4 10 -2 9 -14 -1 -11 -5 -20 -9 -20
-5 0 -4 -9 2 -19 7 -14 7 -22 -1 -27 -8 -4 -7 -9 2 -14 10 -7 10 -12 0 -23 -9
-12 -9 -16 1 -19 11 -4 11 -8 0 -20 -10 -13 -10 -17 0 -20 11 -4 11 -8 0 -20
-10 -13 -10 -17 0 -20 11 -4 11 -8 0 -20 -10 -13 -10 -17 0 -20 11 -4 11 -8 0
-20 -10 -13 -10 -17 0 -20 11 -4 11 -8 0 -20 -10 -13 -10 -17 0 -20 10 -4 10
-8 -1 -21 -7 -10 -9 -17 -4 -17 12 0 10 -81 -2 -100 -5 -8 -4 -11 3 -6 7 4 10
-1 9 -14 -1 -11 -5 -20 -9 -20 -5 0 -3 -10 3 -22 7 -13 11 -25 10 -28 -2 -3
-7 -13 -13 -24 -7 -13 -7 -16 0 -12 6 4 10 -2 9 -14 -1 -11 -5 -20 -9 -20 -5
0 -4 -8 1 -17 12 -23 11 -33 -1 -57 -7 -13 -7 -16 0 -12 6 4 10 -2 9 -14 -1
-11 -5 -20 -9 -20 -5 0 -3 -10 3 -22 7 -13 12 -23 12 -23 0 0 -5 -11 -12 -24
-7 -13 -8 -21 -3 -17 6 4 10 -2 9 -14 -1 -11 -5 -20 -9 -20 -5 0 -3 -10 3 -22
7 -13 11 -25 10 -28 -2 -3 -7 -13 -13 -24 -7 -13 -7 -16 0 -12 6 4 10 -2 9
-14 -1 -11 -5 -20 -10 -20 -4 0 -5 -5 -1 -11 11 -18 11 -82 1 -103 -6 -12 -6
-16 1 -12 6 4 10 -2 9 -14 -1 -11 -5 -20 -9 -20 -5 0 -3 -10 3 -22 7 -13 11
-25 10 -28 -2 -3 -7 -13 -13 -24 -7 -13 -7 -16 0 -12 6 4 10 -2 9 -14 -1 -11
-5 -20 -9 -20 -5 0 -4 -8 1 -17 5 -10 10 -20 12 -23 1 -3 -3 -16 -10 -29 -7
-13 -8 -21 -3 -17 6 4 10 -2 9 -14 -1 -11 -5 -20 -9 -20 -5 0 -4 -8 1 -17 12
-23 11 -33 -1 -57 -7 -13 -7 -16 0 -12 6 4 10 -2 9 -14 -1 -11 -5 -20 -9 -20
-5 0 -4 -8 1 -17 12 -23 11 -33 -1 -57 -7 -13 -7 -16 0 -12 6 4 10 -2 9 -14
-1 -11 -5 -20 -9 -20 -5 0 -4 -9 2 -19 7 -14 7 -22 -1 -27 -8 -4 -7 -9 2 -14
10 -7 10 -12 0 -23 -9 -12 -9 -16 1 -19 11 -4 11 -8 0 -20 -10 -13 -10 -17 0
-20 11 -4 11 -8 0 -20 -10 -13 -10 -17 0 -20 11 -4 11 -8 0 -20 -10 -13 -10
-17 0 -20 11 -4 11 -8 0 -20 -10 -13 -10 -17 0 -20 11 -4 11 -8 0 -20 -10 -13
-10 -17 0 -20 10 -4 10 -8 -1 -21 -7 -10 -9 -17 -4 -17 12 0 10 -81 -2 -100
-5 -8 -4 -11 3 -6 7 4 10 -1 9 -14 -1 -11 -5 -20 -9 -20 -5 0 -3 -10 3 -22 7
-13 11 -25 10 -28 -2 -3 -7 -13 -13 -24 -7 -13 -7 -16 0 -12 6 4 10 -2 9 -14
-1 -11 -5 -20 -9 -20 -5 0 -3 -10 3 -22 7 -13 11 -25 10 -28 -2 -3 -7 -13 -13
-24 -7 -13 -7 -16 0 -12 6 4 10 -2 9 -14 -1 -11 -5 -20 -9 -20 -5 0 -3 -10 3
-22 7 -13 11 -25 10 -28 -2 -3 -7 -13 -13 -24 -7 -13 -7 -16 0 -12 6 4 10 -2
9 -14 -1 -11 -5 -20 -9 -20 -5 0 -4 -8 1 -18 12 -22 11 -32 -1 -56 -7 -13 -7
-16 0 -12 6 4 10 -2 9 -14 -1 -11 -5 -20 -9 -20 -5 0 -4 -9 2 -19 7 -14 7 -22
-1 -27 -8 -4 -7 -9 2 -14 10 -7 10 -12 0 -23 -9 -12 -9 -16 1 -19 11 -4 11 -8
0 -20 -10 -13 -10 -17 0 -20 11 -4 11 -8 0 -20 -10 -13 -10 -17 0 -20 11 -4
11 -8 0 -20 -10 -13 -10 -17 0 -20 11 -4 11 -8 0 -20 -10 -13 -10 -17 0 -20
11 -4 11 -8 0 -20 -10 -13 -10 -17 0 -20 10 -4 10 -8 -1 -21 -7 -10 -9 -17 -4
-17 12 0 10 -81 -2 -100 -5 -8 -4 -11 3 -6 7 4 10 -1 9 -14 -1 -11 -5 -20 -9
-20 -5 0 -4 -8 1 -17 5 -10 10 -20 12 -23 1 -3 -3 -16 -10 -29 -7 -13 -8 -21
-3 -17 6 4 10 -2 9 -14 -1 -11 -5 -20 -9 -20 -5 0 -3 -10 3 -22 7 -13 11 -25
10 -28 -2 -3 -7 -13 -13 -24 -7 -13 -7 -16 0 -12 6 4 10 -2 9 -14 -1 -11 -5
-20 -9 -20 -5 0 -4 -8 1 -17 5 -10 10 -20 12 -23 1 -3 -3 -16 -10 -29 -7 -13
-8 -21 -3 -17 6 4 10 -2 9 -14 -1 -11 -5 -20 -9 -20 -5 0 -3 -10 3 -22 7 -13
11 -25 10 -28 -2 -3 -7 -13 -13 -24 -7 -13 -7 -16 0 -12 6 4 10 -2 9 -14 -1
-11 -5 -20 -9 -20 -5 0 -4 -9 2 -19 7 -14 7 -22 -1 -27 -8 -4 -7 -9 2 -14 10
-7 10 -12 0 -23 -9 -12 -9 -16 1 -19 11 -4 11 -8 0 -20 -10 -13 -10 -17 0 -20
10 -4 10 -8 -1 -21 -7 -10 -9 -17 -3 -17 10 0 10 -49 -1 -67 -4 -6 -3 -13 0
-17 4 -4 7 -26 8 -49 0 -42 -13 -69 -29 -60 -15 10 -86 9 -86 0 0 -6 -5 -6
-12 0 -16 10 -98 10 -115 0 -7 -5 -13 -5 -13 0 0 4 -34 8 -75 8 -41 0 -75 -4
-75 -9 0 -5 -6 -4 -12 1 -7 5 -24 8 -38 6 -14 -2 -29 -3 -35 -3 -5 0 -21 1
-35 3 -14 2 -31 -1 -37 -6 -7 -5 -13 -6 -13 -1 0 5 -16 9 -35 9 -19 0 -35 -2
-35 -5 0 -3 -11 -5 -25 -5 -14 0 -25 2 -25 5 0 8 -105 4 -118 -4 -7 -4 -12 -3
-12 1 0 5 -19 8 -42 6 -24 -2 -49 -3 -55 -3 -16 0 -69 0 -85 0 -7 0 -24 1 -38
3 -14 2 -31 -1 -37 -6 -7 -5 -13 -6 -13 -1 0 5 -16 9 -35 9 -19 0 -35 -4 -35
-8 0 -5 -5 -5 -12 -1 -17 11 -188 11 -188 0 0 -5 -6 -4 -12 1 -7 5 -24 8 -38
6 -35 -5 -41 -5 -72 0 -16 2 -28 0 -28 -5 0 -5 -4 -7 -8 -4 -5 3 -7 -47 -7
-109 1 -74 -2 -112 -8 -108 -6 4 -7 1 -1 -8 13 -22 16 -81 2 -73 -7 5 -8 3 -2
-7 13 -22 16 -81 2 -73 -7 5 -8 3 -2 -7 13 -22 16 -81 2 -73 -7 5 -8 3 -2 -7
12 -20 13 -399 1 -392 -6 4 -7 1 -1 -8 13 -22 16 -81 2 -73 -7 5 -8 3 -2 -7
13 -22 16 -81 2 -73 -7 5 -8 3 -2 -7 13 -22 16 -81 2 -73 -7 5 -8 3 -2 -7 12
-20 13 -399 1 -392 -6 4 -7 1 -1 -8 13 -22 16 -81 2 -73 -7 5 -8 3 -2 -7 13
-22 16 -81 2 -73 -7 5 -8 3 -2 -7 13 -22 16 -81 2 -73 -7 5 -8 3 -2 -7 12 -20
13 -399 1 -392 -6 4 -7 1 -1 -8 13 -22 16 -81 2 -73 -7 5 -8 3 -2 -7 13 -21
13 -201 0 -218 -8 -11 -8 -13 1 -8 9 6 12 -5 10 -40 l-2 -48 2035 0 2035 0 1
8088 0 8087 -2032 0 c-1118 0 -2035 -3 -2037 -7z"/>
<path d="M3 11594 c-2 -6 -3 -42 -1 -80 l3 -68 105 -89 c58 -49 120 -101 139
-115 18 -15 43 -35 55 -46 11 -10 37 -30 56 -45 19 -14 40 -30 46 -36 6 -5 30
-26 55 -47 24 -20 91 -75 148 -122 57 -47 117 -96 133 -108 16 -13 39 -32 52
-43 13 -11 40 -33 61 -50 21 -16 43 -35 49 -40 6 -6 36 -30 66 -55 30 -25 60
-49 66 -55 6 -5 28 -23 49 -40 35 -27 79 -63 220 -180 26 -22 59 -49 73 -60
13 -11 55 -45 91 -75 37 -30 83 -67 102 -83 58 -47 111 -91 130 -109 11 -10
24 -18 29 -18 6 0 10 -4 10 -8 0 -4 23 -26 52 -47 28 -22 56 -44 62 -50 6 -5
26 -22 44 -37 l33 -27 -27 -23 c-15 -13 -32 -28 -38 -33 -6 -6 -60 -51 -121
-100 -60 -49 -112 -92 -115 -95 -3 -3 -36 -30 -75 -61 -38 -31 -80 -65 -91
-75 -12 -11 -36 -30 -54 -44 -18 -14 -42 -33 -54 -43 -11 -10 -34 -28 -49 -40
-16 -12 -36 -29 -45 -38 -10 -8 -53 -44 -97 -79 -44 -35 -82 -67 -85 -70 -3
-3 -66 -55 -140 -115 -74 -59 -144 -117 -155 -127 -11 -10 -49 -42 -85 -70
-36 -29 -67 -55 -70 -58 -3 -3 -54 -46 -115 -95 -60 -49 -115 -94 -122 -100
-7 -5 -18 -14 -25 -20 -19 -15 -121 -98 -134 -110 -7 -5 -26 -21 -44 -35 -18
-14 -40 -32 -49 -41 -9 -8 -38 -33 -66 -55 -74 -58 -75 -60 -72 -144 l2 -75
765 -1 765 -1 38 25 c20 13 37 29 37 33 0 5 5 9 11 9 6 0 27 16 47 35 20 19
40 35 43 35 4 0 25 17 48 38 22 20 46 42 53 47 12 9 99 81 143 117 11 9 67 55
125 102 58 47 112 92 120 100 20 18 87 74 134 111 22 17 44 35 50 40 24 21 84
72 126 105 24 19 51 42 60 50 9 8 52 44 95 80 44 35 85 69 91 75 6 5 28 24 49
40 38 30 156 127 205 168 14 12 63 53 110 91 47 38 87 72 90 75 3 3 26 23 52
44 26 21 53 43 60 50 7 7 36 30 63 52 44 34 105 86 233 196 35 30 34 40 -9 65
-9 5 -34 23 -55 41 -35 29 -102 83 -144 116 -49 39 -249 204 -267 221 -12 12
-34 30 -48 41 -15 11 -33 26 -40 33 -8 6 -74 62 -147 122 -73 61 -142 118
-153 128 -11 10 -58 49 -105 87 -47 39 -91 75 -98 82 -7 7 -34 29 -60 50 -26
21 -49 40 -52 43 -3 3 -30 25 -60 50 -30 24 -62 51 -71 60 -9 8 -25 22 -35 30
-72 58 -191 157 -200 165 -6 5 -32 28 -59 50 -27 22 -62 52 -79 66 -17 14 -42
34 -55 45 -13 10 -28 24 -35 29 -6 6 -38 32 -71 60 -33 27 -65 54 -71 60 -6 5
-44 37 -84 70 l-73 60 -770 0 c-556 0 -771 -3 -774 -11z"/>
<path d="M18428 11585 c-13 -11 -45 -38 -73 -60 -27 -22 -55 -44 -61 -50 -6
-5 -30 -26 -54 -45 -24 -19 -48 -40 -54 -45 -6 -6 -49 -41 -96 -79 -47 -39
-87 -72 -90 -75 -3 -3 -27 -24 -55 -45 -27 -22 -57 -47 -67 -55 -9 -9 -28 -25
-42 -36 -37 -29 -57 -45 -176 -145 -31 -26 -51 -42 -200 -165 -80 -66 -154
-128 -165 -137 -11 -9 -49 -41 -85 -70 -36 -29 -67 -55 -70 -58 -3 -3 -41 -35
-85 -71 -130 -106 -481 -397 -591 -489 -130 -110 -121 -99 -99 -114 11 -8 30
-22 42 -32 12 -11 35 -29 50 -41 15 -12 38 -30 50 -40 12 -10 34 -27 50 -38
15 -11 38 -30 50 -42 12 -12 31 -27 41 -35 18 -12 110 -89 136 -113 6 -5 34
-28 61 -49 28 -22 58 -47 67 -55 9 -9 31 -27 48 -41 17 -14 37 -30 44 -37 7
-6 42 -35 77 -64 35 -29 66 -57 67 -61 2 -5 8 -6 13 -2 5 3 9 1 9 -4 0 -5 57
-57 128 -115 114 -94 148 -122 189 -157 7 -6 84 -69 170 -141 87 -72 172 -143
189 -157 17 -15 52 -45 79 -67 125 -104 383 -319 408 -341 15 -13 27 -23 27
-21 0 2 20 -15 45 -37 l44 -41 773 0 773 0 3 74 c4 88 9 81 -163 219 -66 54
-124 102 -130 108 -5 6 -32 28 -60 50 -27 21 -55 44 -61 50 -7 5 -78 64 -160
130 -81 65 -155 126 -164 134 -8 8 -40 35 -70 60 -30 25 -60 49 -67 55 -6 5
-29 24 -50 40 -21 17 -65 53 -98 80 -33 28 -107 89 -165 135 -58 47 -107 87
-110 90 -3 3 -41 35 -85 70 -44 35 -82 67 -85 70 -3 3 -43 37 -90 74 -47 38
-93 77 -103 87 -10 11 -21 19 -25 19 -4 0 -23 15 -42 33 -19 17 -51 44 -70 59
-19 14 -44 34 -55 45 -11 10 -33 28 -48 40 l-28 22 23 20 c39 33 149 124 248
205 52 43 104 86 115 95 11 9 83 68 160 131 77 63 145 119 152 125 6 5 29 24
49 40 21 17 45 38 53 48 9 9 21 17 27 17 7 0 14 3 16 8 2 4 28 28 58 52 30 25
57 47 60 51 3 3 52 43 110 90 58 46 107 86 110 89 22 24 354 290 361 290 6 0
7 5 4 10 -3 6 -2 10 3 10 4 0 17 8 28 18 10 9 64 53 119 97 55 43 108 87 118
96 11 10 41 35 68 56 l49 38 -3 80 -2 80 -772 1 c-768 0 -772 0 -795 -21z"/>
</g>
</svg>
